<?xml version="1.0" encoding="utf-8"?>
<!-- Generator: Adobe Illustrator 16.0.3, SVG Export Plug-In . SVG Version: 6.00 Build 0)  -->
<!DOCTYPE svg PUBLIC "-//W3C//DTD SVG 1.1//EN" "http://www.w3.org/Graphics/SVG/1.1/DTD/svg11.dtd">
<svg version="1.1" id="Calque_1" xmlns="http://www.w3.org/2000/svg" xmlns:xlink="http://www.w3.org/1999/xlink" x="0px" y="0px"
	 width="373.479px" height="158.472px" viewBox="0 0 373.479 158.472" enable-background="new 0 0 373.479 158.472"
	 xml:space="preserve">
<g>
	<g>
		<path fill="#585857" d="M321.051,120.456c-0.382,2.575-1.704,4.919-5.113,4.919c-3.846,0-5.736-3.272-5.736-8.265
			c0-3.911,0.813-9.027,5.736-9.027c1.455,0,2.591,0.445,3.409,1.33c0.819,0.821,1.322,1.953,1.386,3.402h13.313
			c-0.951-9.777-9.276-13.566-18.107-13.566c-7.543,0-13.667,3.109-16.729,8.751v17.787c3.104,5.515,9.32,8.417,16.729,8.417
			c9.146,0,17.223-3.72,18.362-13.748H321.051z"/>
		<path fill="#585857" d="M337.686,141.563c0.944,0,2.045,0.012,2.93,0.012c4.098,0,5.039-6.255,2.897-11.725l-10.851-30.094h13.185
			l5.798,20.381l5.747-20.381h6.63l0.074,17.227l-4.688,13.629c-3.461,10.22-5.349,20.306-15.701,21.633h-6.021V141.563z"/>
		<path fill="#585857" d="M260.112,100.644h11.986v5.17c2.966-3.974,6.186-6.122,11.168-6.122c8.702,0,12.807,5.109,12.807,14.195
			v19.812h-13.125V116.23c0-3.287-0.885-6.188-4.605-6.188c-4.035,0-5.11,2.589-5.11,6.821v16.835h-13.12V100.644z"/>
		<path fill="#585857" d="M237.658,127.116c-2.594,0-4.166-1.136-4.166-2.775c0-4.293,5.678-3.272,9.973-5.363
			C243.774,123.514,242.26,127.116,237.658,127.116 M256.736,133.442l-0.151-20.14c0-7.895-0.944-13.698-16.597-13.698
			c-8.399,0-13.443,1.707-15.983,4.783v6.324h10.56c0.315-2.838,2.773-3.218,4.605-3.218c1.396,0,4.295,0.313,4.295,2.71
			c0,4.546-12.721,2.076-19.46,6.419v15.35c2.329,1.417,5.39,2.038,8.445,2.038c4.926,0,7.984-0.453,11.707-3.933l-0.023,3.537
			L256.736,133.442z"/>
		<polygon fill="#585857" points="208.464,88.383 208.418,108.748 193.148,88.383 187.529,88.378 187.454,103.728 209.155,133.895 
			220.738,133.895 220.738,88.383 		"/>
		<path fill="#E20717" d="M11.376,97.737c3.785-7.226,11.079-11.643,20.856-11.643c10.925,0,19.691,5.678,21.52,16.841H39.619
			c-1.064-3.719-3.783-5.738-7.633-5.738c-5.865,0-8.646,5.296-8.646,13.312c0,6.438,2.023,12.302,9.533,12.302
			c3.029,0,6.875-2.075,7.636-5.23h-6.563v-9.85h20.379v25.114h-9.591l-0.573-4.477c-2.458,2.9-6.563,5.552-13.693,5.552
			c-7.834,0-15.123-3.426-19.039-10.536L11.376,97.737z"/>
		<path fill="#E20717" d="M119.452,100.549h11.989v5.176c2.964-3.976,6.181-6.123,11.166-6.123c8.707,0,12.806,5.114,12.806,14.203
			v19.81h-13.121v-17.473c0-3.286-0.882-6.193-4.604-6.193c-4.039,0-5.116,2.594-5.116,6.825v16.841h-13.12V100.549z"/>
		<path fill="#E20717" d="M70.514,122.192v11.423H57.392v-33.065H69.31v6.693h0.128c1.831-5.174,5.057-7.641,10.156-7.641
			c0.572,0,1.142,0.129,1.711,0.199v10.75C69.726,110.994,70.514,122.192,70.514,122.192"/>
		<path fill="#E20717" d="M174.231,125.092c-4.299,0-5.181-4.024-5.181-7.5c0-3.661,1.194-7.828,5.555-7.828
			c4.345,0,5.62,3.979,5.62,7.637C180.225,121.25,178.764,125.092,174.231,125.092 M179.777,88.186v15.708
			c-2.774-3.278-5.677-4.29-9.845-4.29c-4.361,0-8.187,2.191-10.727,6.012v23.348c2.494,3.436,6.404,5.603,11.737,5.603
			c4.228,0,7.065-1.334,10.157-5.363v4.412h11.802V88.186H179.777z"/>
		<path fill="#E20717" d="M96.206,127.116c-2.588,0-4.162-1.136-4.162-2.775c0-4.293,5.677-3.272,9.97-5.363
			C102.326,123.514,100.81,127.116,96.206,127.116 M115.289,133.442l-0.155-20.14c0-7.895-0.943-13.698-16.594-13.698
			c-6.773,0-11.355,1.109-14.216,3.147v7.96h8.787c0.318-2.838,2.774-3.218,4.609-3.218c1.385,0,4.293,0.313,4.293,2.71
			c0,6.18-23.538-0.624-23.538,14.389c0,6.879,5.554,9.974,11.803,9.974c4.921,0,8.701-1.009,12.426-4.488l-0.021,3.537
			L115.289,133.442z"/>
	</g>
	<g>
		<path fill="#E20717" d="M93.636,11.535h10.579L93.09,22.739h-6.509L93.636,11.535z M103.193,44.984
			c-0.317-5.635-4.149-10.725-10.185-10.725c-6.188,0-10.417,4.697-10.651,10.725H103.193z M82.357,50.863
			c0,6.339,3.448,11.983,10.888,11.983c5.167,0,8.307-2.274,9.871-6.738h8.46c-1.959,8.853-9.482,13.786-18.332,13.786
			c-12.689,0-19.818-8.846-19.818-21.308c0-11.516,7.521-21.379,19.582-21.379c12.77,0,20.6,11.511,19.115,23.656H82.357z"/>
		<path fill="#E20717" d="M114.887,28.305h6.74V16.162h8.925v12.143h8.071v6.652h-8.071v21.619c0,3.682,0.317,5.567,4.309,5.567
			c1.257,0,2.507,0,3.762-0.312v6.897c-1.958,0.146-3.841,0.462-5.799,0.462c-9.319,0-11.042-3.606-11.197-10.337V34.957h-6.74
			V28.305z"/>
		<path fill="#E20717" d="M145.061,28.305h8.382v7.83h0.156c1.016-4.312,6.345-8.929,11.828-8.929c2.037,0,2.585,0.152,3.368,0.236
			v8.616c-1.255-0.157-2.585-0.393-3.838-0.393c-6.108,0-10.965,4.935-10.965,13.862v19.271h-8.932V28.305z"/>
		<path fill="#E20717" d="M201.322,48.514c0-6.974-3.527-14.254-11.517-14.254s-11.516,7.28-11.516,14.254
			c0,7.049,3.526,14.335,11.516,14.335S201.322,55.563,201.322,48.514 M169.359,48.514c0-12.377,7.445-21.307,20.446-21.307
			c13,0,20.445,8.93,20.445,21.307c0,12.454-7.445,21.38-20.445,21.38C176.804,69.894,169.359,60.968,169.359,48.514"/>
		<path fill="#E20717" d="M237.927,34.259c-7.522,0-11.36,5.712-11.36,14.328c0,8.155,4.148,14.259,11.36,14.259
			c8.146,0,11.199-7.208,11.199-14.259C249.126,41.228,245.286,34.259,237.927,34.259 M217.952,28.305h8.456v5.478h0.159
			c2.51-4.619,7.36-6.577,12.533-6.577c12.771,0,18.954,9.717,18.954,21.54c0,10.891-5.482,21.148-17.467,21.148
			c-5.169,0-10.731-1.88-13.551-6.344h-0.154v20.215h-8.931V28.305z"/>
		<path fill="#E20717" d="M295.683,48.514c0-6.974-3.527-14.254-11.517-14.254c-7.986,0-11.512,7.28-11.512,14.254
			c0,7.049,3.525,14.335,11.512,14.335C292.156,62.849,295.683,55.563,295.683,48.514 M263.724,48.514
			c0-12.377,7.439-21.307,20.442-21.307c13.005,0,20.447,8.93,20.447,21.307c0,12.454-7.442,21.38-20.447,21.38
			C271.164,69.894,263.724,60.968,263.724,48.514"/>
		<path fill="#E20717" d="M348.592,34.259c6.032,0,9.87,5.089,10.183,10.725H337.94C338.173,38.955,342.404,34.259,348.592,34.259
			 M364.047,56.108h-5.352c-1.563,4.465-4.7,6.738-9.867,6.738c-7.44,0-10.889-5.642-10.889-11.986h26.107V35.282
			c-3.346-4.836-8.7-8.076-15.455-8.076c-12.063,0-19.583,9.866-19.583,21.381c0,12.46,7.133,21.307,19.819,21.307
			c6.244,0,11.783-2.498,15.219-7.057V56.108z"/>
		<path fill="#E20717" d="M52.395,27.207c-5.873,0-9.709,2.58-12.69,6.738c-1.8-4.627-6.419-6.738-11.356-6.738
			c-6.421,0-9.794,2.74-12.458,6.738h-0.237v-5.64h-4.604v40.494h5.077V44.751c0-6.738,4.23-10.492,8.851-10.492
			c5.402,0,7.129,2.975,7.129,8.535v26.005h8.933V45.066c0-6.821,2.581-10.807,8.616-10.807c6.967,0,7.364,4.461,7.364,10.885
			v23.655h8.93V40.835C65.95,30.959,60.935,27.207,52.395,27.207"/>
		<rect x="312.313" y="12.87" fill="#E20717" width="8.934" height="55.928"/>
	</g>
</g>
</svg>
